<svg xmlns="http://www.w3.org/2000/svg" width="368" height="206" viewBox="0 0 368 206"><rect width="100%" height="100%" fill="#DDDDDD"/><path fill="#999999" d="M78.665 103.345h4.32q1.59 0 2.77-.4 1.18-.39 1.97-1.14.78-.74 1.17-1.8.39-1.07.39-2.38 0-1.24-.39-2.26-.39-1.01-1.16-1.72-.77-.7-1.96-1.08-1.18-.38-2.79-.38h-4.32v11.16Zm-5.79-15.63h10.11q3.12 0 5.39.73 2.28.73 3.77 2.04 1.48 1.32 2.2 3.14.72 1.83.72 4 0 2.26-.75 4.14t-2.26 3.24q-1.5 1.35-3.77 2.1-2.27.76-5.3.76h-4.32v10.94h-5.79v-31.09Zm25.85-.86h5.31v31.95h-5.31v-31.95Zm22.27 26.25v-3.72q-2.3.11-3.87.4-1.57.29-2.52.74-.94.45-1.35 1.06-.41.6-.41 1.31 0 1.39.83 2 .83.6 2.16.6 1.63 0 2.83-.59 1.19-.59 2.33-1.8Zm-11.22-11.59-.95-1.69q3.81-3.49 9.16-3.49 1.93 0 3.46.64 1.53.63 2.58 1.76t1.6 2.7q.55 1.57.55 3.44v13.93h-2.41q-.75 0-1.16-.23-.41-.22-.64-.91l-.48-1.59q-.83.75-1.63 1.32-.8.57-1.66.96-.86.39-1.83.59-.98.2-2.16.2-1.4 0-2.58-.37-1.19-.38-2.05-1.13-.86-.75-1.33-1.87-.47-1.12-.47-2.6 0-.84.28-1.67t.91-1.58q.63-.75 1.65-1.42 1.01-.67 2.48-1.16 1.47-.49 3.43-.81 1.95-.31 4.47-.37v-1.29q0-2.22-.95-3.28-.94-1.07-2.73-1.07-1.29 0-2.14.31-.85.3-1.49.67-.65.38-1.17.68-.53.3-1.17.3-.56 0-.95-.29-.39-.29-.62-.68Zm38.59-2.04-1.4 1.94q-.23.3-.46.47-.23.17-.66.17-.4 0-.79-.25-.39-.24-.93-.55-.53-.32-1.28-.56-.74-.25-1.83-.25-1.4 0-2.45.5-1.06.51-1.76 1.46-.7.94-1.04 2.29-.34 1.34-.34 3.04 0 1.76.37 3.14.38 1.37 1.09 2.31.71.93 1.72 1.42 1.01.48 2.28.48 1.27 0 2.05-.31.79-.31 1.32-.69.54-.38.94-.69.4-.31.89-.31.65 0 .97.5l1.52 1.93q-.88 1.03-1.91 1.73-1.03.7-2.14 1.12-1.11.42-2.28.59-1.17.17-2.33.17-2.04 0-3.85-.76-1.8-.76-3.16-2.23-1.35-1.46-2.14-3.58-.78-2.11-.78-4.82 0-2.43.7-4.51.69-2.07 2.05-3.59 1.35-1.51 3.35-2.37 2-.86 4.6-.86 2.48 0 4.34.79 1.86.8 3.34 2.28Zm7.72 5.76h10.02q0-1.03-.29-1.94-.29-.92-.87-1.6-.58-.69-1.48-1.09-.89-.4-2.07-.4-2.3 0-3.62 1.31-1.33 1.32-1.69 3.72Zm13.54 3.21h-13.65q.13 1.7.6 2.93.48 1.24 1.25 2.04.77.81 1.84 1.21 1.06.4 2.35.4t2.23-.3q.93-.31 1.63-.67.7-.37 1.23-.67.52-.3 1.02-.3.66 0 .99.5l1.52 1.93q-.88 1.03-1.97 1.73-1.1.7-2.29 1.12-1.2.42-2.43.59-1.24.17-2.4.17-2.3 0-4.28-.76-1.98-.76-3.44-2.26-1.46-1.49-2.3-3.7-.84-2.2-.84-5.1 0-2.26.73-4.25.73-1.99 2.1-3.46 1.36-1.47 3.33-2.33 1.97-.86 4.44-.86 2.09 0 3.85.66 1.76.67 3.03 1.95 1.27 1.28 1.99 3.14t.72 4.24q0 1.21-.26 1.63-.26.42-.99.42Zm10.54-21.59v12.26q1.29-1.21 2.84-1.96 1.54-.75 3.63-.75 1.81 0 3.2.61 1.4.61 2.34 1.72.93 1.11 1.41 2.64.49 1.54.49 3.39v14.04h-5.31v-14.04q0-2.02-.93-3.13-.92-1.11-2.81-1.11-1.38 0-2.58.63-1.21.62-2.28 1.7v15.95h-5.31v-31.95h5.31Zm28.7 9.55q2.45 0 4.46.79 2.01.8 3.44 2.26 1.43 1.46 2.21 3.57.77 2.11.77 4.71 0 2.62-.77 4.73-.78 2.1-2.21 3.59-1.43 1.48-3.44 2.28-2.01.79-4.46.79-2.47 0-4.49-.79-2.02-.8-3.45-2.28-1.43-1.49-2.22-3.59-.78-2.11-.78-4.73 0-2.6.78-4.71.79-2.11 2.22-3.57 1.43-1.46 3.45-2.26 2.02-.79 4.49-.79Zm0 18.64q2.75 0 4.07-1.85 1.33-1.85 1.33-5.42t-1.33-5.44q-1.32-1.87-4.07-1.87-2.79 0-4.14 1.88-1.34 1.88-1.34 5.43t1.34 5.41q1.35 1.86 4.14 1.86Zm15.01-28.19h5.31v31.95h-5.31v-31.95Zm24.46 25.41v-9.89q-.9-1.09-1.96-1.54-1.07-.46-2.29-.46-1.21 0-2.17.46-.97.45-1.66 1.36-.69.91-1.05 2.32-.37 1.41-.37 3.32 0 1.94.31 3.28.31 1.35.9 2.2.58.85 1.41 1.22.84.38 1.87.38 1.66 0 2.82-.69t2.19-1.96Zm0-25.41h5.31v31.95h-3.24q-1.06 0-1.33-.97l-.46-2.13q-1.33 1.53-3.06 2.48-1.73.94-4.03.94-1.81 0-3.31-.75-1.51-.75-2.59-2.18-1.09-1.43-1.68-3.54-.59-2.11-.59-4.82 0-2.45.67-4.55.66-2.11 1.91-3.66 1.25-1.55 2.99-2.42 1.74-.87 3.91-.87 1.85 0 3.16.58t2.34 1.57v-11.63Zm14.75 18.38h10.02q0-1.03-.29-1.94-.29-.92-.87-1.6-.58-.69-1.47-1.09-.89-.4-2.08-.4-2.3 0-3.62 1.31-1.32 1.32-1.69 3.72Zm13.55 3.21h-13.65q.12 1.7.6 2.93.47 1.24 1.24 2.04.78.81 1.84 1.21 1.07.4 2.36.4 1.29 0 2.22-.3.94-.31 1.64-.67.7-.37 1.22-.67.53-.3 1.02-.3.67 0 .99.5l1.53 1.93q-.88 1.03-1.98 1.73t-2.29 1.12q-1.19.42-2.43.59-1.23.17-2.4.17-2.3 0-4.27-.76-1.98-.76-3.44-2.26-1.47-1.49-2.3-3.7-.84-2.2-.84-5.1 0-2.26.73-4.25.73-1.99 2.09-3.46 1.37-1.47 3.34-2.33 1.96-.86 4.44-.86 2.08 0 3.84.66 1.77.67 3.04 1.95 1.26 1.28 1.99 3.14.72 1.86.72 4.24 0 1.21-.26 1.63-.26.42-.99.42Zm9.91-10.37.32 2.5q1.03-1.98 2.45-3.11 1.42-1.13 3.36-1.13 1.52 0 2.45.67l-.35 3.98q-.1.38-.31.54-.2.17-.55.17-.32 0-.95-.11-.64-.11-1.24-.11-.88 0-1.57.26-.69.26-1.23.74-.55.48-.97 1.17-.42.69-.79 1.57v13.59h-5.31v-22.06h3.12q.82 0 1.14.29.32.29.43 1.04Z"/></svg>