<svg xmlns="http://www.w3.org/2000/svg" xmlns:xlink="http://www.w3.org/1999/xlink" viewBox="0 0 768 432" width="768" height="432" preserveAspectRatio="xMidYMid meet" style="width: 100%; height: 100%; transform: translate3d(0px, 0px, 0px); content-visibility: visible;"><defs><clipPath id="__lottie_element_200"><rect width="768" height="432" x="0" y="0"></rect></clipPath><clipPath id="__lottie_element_205"><path d="M0,0 L320,0 L320,320 L0,320z"></path></clipPath><filter id="__lottie_element_207" x="-100%" y="-100%" width="300%" height="300%"><feGaussianBlur result="filter_result_0" stdDeviation="19.59 19.59" edgeMode="duplicate"></feGaussianBlur></filter><clipPath id="__lottie_element_209"><path d="M0,0 L320,0 L320,320 L0,320z"></path></clipPath><clipPath id="__lottie_element_213"><path d="M0,0 L320,0 L320,320 L0,320z"></path></clipPath><clipPath id="__lottie_element_223"><path d="M0,0 L320,0 L320,320 L0,320z"></path></clipPath></defs><g clip-path="url(#__lottie_element_200)"><g transform="matrix(1,0,0,1,384,216)" opacity="1" style="display: block;"><g opacity="1" transform="matrix(1,0,0,1,0.75,-5.015999794006348)"><path fill="rgb(255,255,255)" fill-opacity="1" d=" M406.75,-242.9844970703125 C406.75,-242.9844970703125 406.75,242.9844970703125 406.75,242.9844970703125 C406.75,242.9844970703125 -406.75,242.9844970703125 -406.75,242.9844970703125 C-406.75,242.9844970703125 -406.75,-242.9844970703125 -406.75,-242.9844970703125 C-406.75,-242.9844970703125 406.75,-242.9844970703125 406.75,-242.9844970703125z"></path></g></g><g clip-path="url(#__lottie_element_205)" filter="url(#__lottie_element_207)" transform="matrix(1,0,0,1,224,79)" opacity="0.38" style="display: block;"><g clip-path="url(#__lottie_element_213)" transform="matrix(-0.8318591713905334,0.554986834526062,-0.554986834526062,-0.8318591713905334,381.8953552246094,204.29957580566406)" opacity="1" style="display: block;"><g transform="matrix(1,0,0,1,149.4530029296875,143.4530029296875)" opacity="0.15" style="display: block;"><g opacity="1" transform="matrix(1,0,0,1,10.54699993133545,16.547000885009766)"><path stroke-linecap="round" stroke-linejoin="miter" fill-opacity="0" stroke-miterlimit="4" stroke="rgb(55,88,211)" stroke-opacity="1" stroke-width="20" d=" M0,-88.5469970703125 C48.86908721923828,-88.5469970703125 88.5469970703125,-48.86908721923828 88.5469970703125,0 C88.5469970703125,48.86908721923828 48.86908721923828,88.5469970703125 0,88.5469970703125 C-48.86908721923828,88.5469970703125 -88.5469970703125,48.86908721923828 -88.5469970703125,0 C-88.5469970703125,-48.86908721923828 -48.86908721923828,-88.5469970703125 0,-88.5469970703125z"></path></g></g><g transform="matrix(1,0,0,1,149.4530029296875,143.4530029296875)" opacity="1" style="display: none;"><g opacity="1" transform="matrix(1,0,0,1,10.54699993133545,16.547000885009766)"><path stroke-linecap="round" stroke-linejoin="miter" fill-opacity="0" stroke-miterlimit="4" stroke="rgb(55,88,211)" stroke-opacity="1" stroke-width="20" d=" M0,-88.5469970703125 C48.86908721923828,-88.5469970703125 88.5469970703125,-48.86908721923828 88.5469970703125,0 C88.5469970703125,48.86908721923828 48.86908721923828,88.5469970703125 0,88.5469970703125 C-48.86908721923828,88.5469970703125 -88.5469970703125,48.86908721923828 -88.5469970703125,0 C-88.5469970703125,0 -88.5469970703125,0 -88.5469970703125,0"></path></g></g><g transform="matrix(1,0,0,1,149.4530029296875,143.4530029296875)" opacity="1" style="display: none;"><g opacity="1" transform="matrix(1,0,0,1,10.54699993133545,16.547000885009766)"><path stroke-linecap="round" stroke-linejoin="miter" fill-opacity="0" stroke-miterlimit="4" stroke="rgb(55,88,211)" stroke-opacity="1" stroke-width="20" d="M0 0"></path></g></g><g transform="matrix(1,0,0,1,149.4530029296875,143.4530029296875)" opacity="1" style="display: none;"><g opacity="1" transform="matrix(1,0,0,1,10.54699993133545,16.547000885009766)"><path stroke-linecap="round" stroke-linejoin="miter" fill-opacity="0" stroke-miterlimit="4" stroke="rgb(55,88,211)" stroke-opacity="1" stroke-width="20" d=" M-88.5469970703125,0 C-88.5469970703125,0 -88.5469970703125,0 -88.5469970703125,0 C-88.5469970703125,-48.86908721923828 -48.86908721923828,-88.5469970703125 0,-88.5469970703125 C0,-88.5469970703125 0,-88.5469970703125 0,-88.5469970703125 C48.86908721923828,-88.5469970703125 88.5469970703125,-48.86908721923828 88.5469970703125,0 C88.5469970703125,48.86908721923828 48.86908721923828,88.5469970703125 0,88.5469970703125 C0,88.5469970703125 0,88.5469970703125 0,88.5469970703125"></path></g></g><g transform="matrix(1,0,0,1,149.4530029296875,143.4530029296875)" opacity="1" style="display: none;"><g opacity="1" transform="matrix(1,0,0,1,10.54699993133545,16.547000885009766)"><path stroke-linecap="round" stroke-linejoin="miter" fill-opacity="0" stroke-miterlimit="4" stroke="rgb(55,88,211)" stroke-opacity="1" stroke-width="20" d="M0 0"></path></g></g><g transform="matrix(1,0,0,1,149.4530029296875,143.4530029296875)" opacity="1" style="display: none;"><g opacity="1" transform="matrix(1,0,0,1,10.54699993133545,16.547000885009766)"><path stroke-linecap="round" stroke-linejoin="miter" fill-opacity="0" stroke-miterlimit="4" stroke="rgb(55,88,211)" stroke-opacity="1" stroke-width="20" d=" M0,88.5469970703125 C0,88.5469970703125 0,88.5469970703125 0,88.5469970703125 C-48.86908721923828,88.5469970703125 -88.5469970703125,48.86908721923828 -88.5469970703125,0 C-88.5469970703125,-48.86908721923828 -48.86908721923828,-88.5469970703125 0,-88.5469970703125 C0,-88.5469970703125 0,-88.5469970703125 0,-88.5469970703125 C48.86908721923828,-88.5469970703125 88.5469970703125,-48.86908721923828 88.5469970703125,0 C88.5469970703125,0 88.5469970703125,0 88.5469970703125,0"></path></g></g><g transform="matrix(1,0,0,1,149.4530029296875,143.4530029296875)" opacity="1" style="display: none;"><g opacity="1" transform="matrix(1,0,0,1,10.54699993133545,16.547000885009766)"><path stroke-linecap="round" stroke-linejoin="miter" fill-opacity="0" stroke-miterlimit="4" stroke="rgb(55,88,211)" stroke-opacity="1" stroke-width="20" d="M0 0"></path></g></g><g transform="matrix(1,0,0,1,149.4530029296875,143.4530029296875)" opacity="1" style="display: none;"><g opacity="1" transform="matrix(1,0,0,1,10.54699993133545,16.547000885009766)"><path stroke-linecap="round" stroke-linejoin="miter" fill-opacity="0" stroke-miterlimit="4" stroke="rgb(55,88,211)" stroke-opacity="1" stroke-width="20" d=" M88.5469970703125,0 C88.5469970703125,0 88.5469970703125,0 88.5469970703125,0 C88.5469970703125,48.86908721923828 48.86908721923828,88.5469970703125 0,88.5469970703125 C-48.86908721923828,88.5469970703125 -88.5469970703125,48.86908721923828 -88.5469970703125,0 C-88.5469970703125,-48.86908721923828 -48.86908721923828,-88.5469970703125 0,-88.5469970703125"></path></g></g><g transform="matrix(1,0,0,1,149.4530029296875,143.4530029296875)" opacity="1" style="display: block;"><g opacity="1" transform="matrix(1,0,0,1,10.54699993133545,16.547000885009766)"><path stroke-linecap="round" stroke-linejoin="miter" fill-opacity="0" stroke-miterlimit="4" stroke="rgb(55,88,211)" stroke-opacity="1" stroke-width="20" d=" M-23.95800018310547,-85.26200103759766 C-16.336999893188477,-87.4020004272461 -8.300999641418457,-88.5469970703125 0,-88.5469970703125"></path></g></g></g></g><g clip-path="url(#__lottie_element_209)" transform="matrix(1,0,0,1,224,56)" opacity="1" style="display: block;"><g clip-path="url(#__lottie_element_223)" transform="matrix(-0.8318591713905334,0.554986834526062,-0.554986834526062,-0.8318591713905334,381.8953552246094,204.29957580566406)" opacity="1" style="display: block;"><g transform="matrix(1,0,0,1,149.4530029296875,143.4530029296875)" opacity="0.15" style="display: block;"><g opacity="1" transform="matrix(1,0,0,1,10.54699993133545,16.547000885009766)"><path stroke-linecap="round" stroke-linejoin="miter" fill-opacity="0" stroke-miterlimit="4" stroke="rgb(55,88,211)" stroke-opacity="1" stroke-width="20" d=" M0,-88.5469970703125 C48.86908721923828,-88.5469970703125 88.5469970703125,-48.86908721923828 88.5469970703125,0 C88.5469970703125,48.86908721923828 48.86908721923828,88.5469970703125 0,88.5469970703125 C-48.86908721923828,88.5469970703125 -88.5469970703125,48.86908721923828 -88.5469970703125,0 C-88.5469970703125,-48.86908721923828 -48.86908721923828,-88.5469970703125 0,-88.5469970703125z"></path></g></g><g transform="matrix(1,0,0,1,149.4530029296875,143.4530029296875)" opacity="1" style="display: none;"><g opacity="1" transform="matrix(1,0,0,1,10.54699993133545,16.547000885009766)"><path stroke-linecap="round" stroke-linejoin="miter" fill-opacity="0" stroke-miterlimit="4" stroke="rgb(55,88,211)" stroke-opacity="1" stroke-width="20" d=" M0,-88.5469970703125 C48.86908721923828,-88.5469970703125 88.5469970703125,-48.86908721923828 88.5469970703125,0 C88.5469970703125,48.86908721923828 48.86908721923828,88.5469970703125 0,88.5469970703125 C-48.86908721923828,88.5469970703125 -88.5469970703125,48.86908721923828 -88.5469970703125,0 C-88.5469970703125,0 -88.5469970703125,0 -88.5469970703125,0"></path></g></g><g transform="matrix(1,0,0,1,149.4530029296875,143.4530029296875)" opacity="1" style="display: none;"><g opacity="1" transform="matrix(1,0,0,1,10.54699993133545,16.547000885009766)"><path stroke-linecap="round" stroke-linejoin="miter" fill-opacity="0" stroke-miterlimit="4" stroke="rgb(55,88,211)" stroke-opacity="1" stroke-width="20" d="M0 0"></path></g></g><g transform="matrix(1,0,0,1,149.4530029296875,143.4530029296875)" opacity="1" style="display: none;"><g opacity="1" transform="matrix(1,0,0,1,10.54699993133545,16.547000885009766)"><path stroke-linecap="round" stroke-linejoin="miter" fill-opacity="0" stroke-miterlimit="4" stroke="rgb(55,88,211)" stroke-opacity="1" stroke-width="20" d=" M-88.5469970703125,0 C-88.5469970703125,0 -88.5469970703125,0 -88.5469970703125,0 C-88.5469970703125,-48.86908721923828 -48.86908721923828,-88.5469970703125 0,-88.5469970703125 C0,-88.5469970703125 0,-88.5469970703125 0,-88.5469970703125 C48.86908721923828,-88.5469970703125 88.5469970703125,-48.86908721923828 88.5469970703125,0 C88.5469970703125,48.86908721923828 48.86908721923828,88.5469970703125 0,88.5469970703125 C0,88.5469970703125 0,88.5469970703125 0,88.5469970703125"></path></g></g><g transform="matrix(1,0,0,1,149.4530029296875,143.4530029296875)" opacity="1" style="display: none;"><g opacity="1" transform="matrix(1,0,0,1,10.54699993133545,16.547000885009766)"><path stroke-linecap="round" stroke-linejoin="miter" fill-opacity="0" stroke-miterlimit="4" stroke="rgb(55,88,211)" stroke-opacity="1" stroke-width="20" d="M0 0"></path></g></g><g transform="matrix(1,0,0,1,149.4530029296875,143.4530029296875)" opacity="1" style="display: none;"><g opacity="1" transform="matrix(1,0,0,1,10.54699993133545,16.547000885009766)"><path stroke-linecap="round" stroke-linejoin="miter" fill-opacity="0" stroke-miterlimit="4" stroke="rgb(55,88,211)" stroke-opacity="1" stroke-width="20" d=" M0,88.5469970703125 C0,88.5469970703125 0,88.5469970703125 0,88.5469970703125 C-48.86908721923828,88.5469970703125 -88.5469970703125,48.86908721923828 -88.5469970703125,0 C-88.5469970703125,-48.86908721923828 -48.86908721923828,-88.5469970703125 0,-88.5469970703125 C0,-88.5469970703125 0,-88.5469970703125 0,-88.5469970703125 C48.86908721923828,-88.5469970703125 88.5469970703125,-48.86908721923828 88.5469970703125,0 C88.5469970703125,0 88.5469970703125,0 88.5469970703125,0"></path></g></g><g transform="matrix(1,0,0,1,149.4530029296875,143.4530029296875)" opacity="1" style="display: none;"><g opacity="1" transform="matrix(1,0,0,1,10.54699993133545,16.547000885009766)"><path stroke-linecap="round" stroke-linejoin="miter" fill-opacity="0" stroke-miterlimit="4" stroke="rgb(55,88,211)" stroke-opacity="1" stroke-width="20" d="M0 0"></path></g></g><g transform="matrix(1,0,0,1,149.4530029296875,143.4530029296875)" opacity="1" style="display: none;"><g opacity="1" transform="matrix(1,0,0,1,10.54699993133545,16.547000885009766)"><path stroke-linecap="round" stroke-linejoin="miter" fill-opacity="0" stroke-miterlimit="4" stroke="rgb(55,88,211)" stroke-opacity="1" stroke-width="20" d=" M88.5469970703125,0 C88.5469970703125,0 88.5469970703125,0 88.5469970703125,0 C88.5469970703125,48.86908721923828 48.86908721923828,88.5469970703125 0,88.5469970703125 C-48.86908721923828,88.5469970703125 -88.5469970703125,48.86908721923828 -88.5469970703125,0 C-88.5469970703125,-48.86908721923828 -48.86908721923828,-88.5469970703125 0,-88.5469970703125"></path></g></g><g transform="matrix(1,0,0,1,149.4530029296875,143.4530029296875)" opacity="1" style="display: block;"><g opacity="1" transform="matrix(1,0,0,1,10.54699993133545,16.547000885009766)"><path stroke-linecap="round" stroke-linejoin="miter" fill-opacity="0" stroke-miterlimit="4" stroke="rgb(55,88,211)" stroke-opacity="1" stroke-width="20" d=" M-23.95800018310547,-85.26200103759766 C-16.336999893188477,-87.4020004272461 -8.300999641418457,-88.5469970703125 0,-88.5469970703125"></path></g></g></g></g></g></svg>