<?xml version="1.0" encoding="iso-8859-1"?>
<!-- Uploaded to: SVG Repo, www.svgrepo.com, Generator: SVG Repo Mixer Tools -->
<svg version="1.1" id="Layer_1" xmlns="http://www.w3.org/2000/svg" xmlns:xlink="http://www.w3.org/1999/xlink" 
	 viewBox="0 0 370 370" xml:space="preserve">
<g id="XMLID_744_">
	<polygon id="XMLID_70_" style="fill:#78B9EB;" points="15,320 15,0 215,0 275,60 275,320 	"/>
	<polygon id="XMLID_745_" style="fill:#5A8BB0;" points="275,173.75 15,320 275,320 	"/>
	<rect id="XMLID_746_" x="75" y="120" style="fill:#DEDDE0;" width="140" height="20"/>
	<rect id="XMLID_747_" x="75" y="160" style="fill:#DEDDE0;" width="140" height="20"/>
	<rect id="XMLID_748_" x="75" y="80" style="fill:#FFFFFF;" width="70" height="20"/>
	<rect id="XMLID_749_" x="75" y="120" style="fill:#FFFFFF;" width="70" height="20"/>
	<rect id="XMLID_750_" x="75" y="160" style="fill:#FFFFFF;" width="70" height="20"/>
	<g id="XMLID_751_">
		<circle id="XMLID_63_" style="fill:#EEEEEF;" cx="275" cy="290" r="80"/>
		<path id="XMLID_62_" style="fill:#DEDDE0;" d="M275,210c44.183,0,80,35.817,80,80s-35.817,80-80,80"/>
	</g>
	<polygon id="XMLID_752_" style="fill:#1E2E3B;" points="215,0 275,60 215,60 	"/>
	<polygon id="XMLID_753_" style="fill:#A0815C;" points="235,320 315,320 295,270 275,300 255,290 	"/>
	<polygon id="XMLID_754_" style="fill:#50412E;" points="275,320 315,320 295,270 275,300 	"/>
	<circle id="XMLID_755_" style="fill:#FF9811;" cx="265" cy="260" r="10"/>
</g>
</svg>